<svg xmlns="http://www.w3.org/2000/svg" xmlns:xlink="http://www.w3.org/1999/xlink" width="400" zoomAndPan="magnify" viewBox="0 0 300 74.999997" height="100" preserveAspectRatio="xMidYMid meet" version="1.0"><defs><filter x="0%" y="0%" width="100%" height="100%" id="2f2e7c7255"><feColorMatrix values="0 0 0 0 1 0 0 0 0 1 0 0 0 0 1 0 0 0 1 0" color-interpolation-filters="sRGB"/></filter><g/><clipPath id="849668cb01"><path d="M 122.140625 0 L 300 0 L 300 75 L 122.140625 75 Z M 122.140625 0 " clip-rule="nonzero"/></clipPath><linearGradient x1="99.999001" gradientTransform="matrix(1.046321, 0, 0, 1.04943, 17.510066, 2.261058)" y1="33" x2="269.984049" gradientUnits="userSpaceOnUse" y2="33" id="7d5de2b8c9"><stop stop-opacity="1" stop-color="rgb(7.843137%, 72.156863%, 65.098039%)" offset="0"/><stop stop-opacity="1" stop-color="rgb(7.843137%, 72.156863%, 65.098039%)" offset="1"/></linearGradient><clipPath id="dfbc6bbfc0"><rect x="0" width="300" y="0" height="75"/></clipPath><clipPath id="66f7618523"><rect x="0" width="300" y="0" height="75"/></clipPath><clipPath id="adb85d234d"><rect x="0" width="300" y="0" height="75"/></clipPath><mask id="8ba37b8846"><g filter="url(#2f2e7c7255)"><g transform="matrix(1, 0, 0, 1, 0, -0.000000000000001893)"><g clip-path="url(#adb85d234d)"><g transform="matrix(1, 0, 0, 1, 0, -0.000000000000001893)"><g clip-path="url(#66f7618523)"><g fill="#000000" fill-opacity="1"><g transform="translate(222.540626, 55.754005)"><g><path d="M 7.03125 0 C 5.269531 0 4.019531 -0.453125 3.28125 -1.359375 C 2.539062 -2.265625 2.410156 -3.648438 2.890625 -5.515625 L 6.4375 -19.65625 L 2.546875 -19.65625 L 3.890625 -25.09375 L 7.859375 -25.09375 L 9.75 -32.625 L 16.359375 -32.625 L 14.46875 -25.09375 L 19.609375 -25.09375 L 18.28125 -19.65625 L 13.21875 -19.65625 L 9.625 -5.4375 L 15.21875 -5.4375 L 13.84375 0 Z M 7.03125 0 "/></g></g></g><g fill="#000000" fill-opacity="1"><g transform="translate(240.60667, 55.754005)"><g><path d="M 7.03125 0 C 5.269531 0 4.019531 -0.453125 3.28125 -1.359375 C 2.539062 -2.265625 2.410156 -3.648438 2.890625 -5.515625 L 6.4375 -19.65625 L 2.546875 -19.65625 L 3.890625 -25.09375 L 7.859375 -25.09375 L 9.75 -32.625 L 16.359375 -32.625 L 14.46875 -25.09375 L 19.609375 -25.09375 L 18.28125 -19.65625 L 13.21875 -19.65625 L 9.625 -5.4375 L 15.21875 -5.4375 L 13.84375 0 Z M 7.03125 0 "/></g></g></g><g fill="#000000" fill-opacity="1"><g transform="translate(258.672714, 55.754005)"><g><path d="M 7.03125 0 C 5.269531 0 4.019531 -0.453125 3.28125 -1.359375 C 2.539062 -2.265625 2.410156 -3.648438 2.890625 -5.515625 L 6.4375 -19.65625 L 2.546875 -19.65625 L 3.890625 -25.09375 L 7.859375 -25.09375 L 9.75 -32.625 L 16.359375 -32.625 L 14.46875 -25.09375 L 19.609375 -25.09375 L 18.28125 -19.65625 L 13.21875 -19.65625 L 9.625 -5.4375 L 15.21875 -5.4375 L 13.84375 0 Z M 7.03125 0 "/></g></g></g></g></g></g></g></g></mask><clipPath id="508c740552"><path d="M 122.140625 0 L 300 0 L 300 75 L 122.140625 75 Z M 122.140625 0 " clip-rule="nonzero"/></clipPath><clipPath id="e29ec1503a"><rect x="0" width="300" y="0" height="75"/></clipPath><clipPath id="5685e6696d"><rect x="0" width="300" y="0" height="75"/></clipPath><clipPath id="b9b2e7e3ca"><rect x="0" width="300" y="0" height="75"/></clipPath></defs><g transform="matrix(1, 0, 0, 1, 0, -0.000000000000001893)"><g clip-path="url(#b9b2e7e3ca)"><g fill="#0B1F3A" fill-opacity="1"><g transform="translate(17.369957, 55.754005)"><g><path d="M 13.421875 0.5 C 10.640625 0.5 8.300781 0.0390625 6.40625 -0.875 C 4.507812 -1.800781 3.15625 -3.101562 2.34375 -4.78125 C 1.53125 -6.46875 1.347656 -8.472656 1.796875 -10.796875 L 8.484375 -10.796875 C 8.316406 -9.003906 8.773438 -7.628906 9.859375 -6.671875 C 10.953125 -5.710938 12.515625 -5.234375 14.546875 -5.234375 C 16.359375 -5.234375 17.847656 -5.597656 19.015625 -6.328125 C 20.191406 -7.066406 20.945312 -8.109375 21.28125 -9.453125 C 21.539062 -10.484375 21.429688 -11.359375 20.953125 -12.078125 C 20.484375 -12.804688 19.578125 -13.335938 18.234375 -13.671875 L 13.09375 -14.9375 C 10.21875 -15.65625 8.203125 -16.847656 7.046875 -18.515625 C 5.890625 -20.191406 5.585938 -22.242188 6.140625 -24.671875 C 6.617188 -26.679688 7.515625 -28.40625 8.828125 -29.84375 C 10.140625 -31.28125 11.785156 -32.394531 13.765625 -33.1875 C 15.742188 -33.976562 17.957031 -34.375 20.40625 -34.375 C 24.195312 -34.375 27.085938 -33.429688 29.078125 -31.546875 C 31.078125 -29.671875 31.785156 -27.070312 31.203125 -23.75 L 24.515625 -23.75 C 24.566406 -25.394531 24.117188 -26.65625 23.171875 -27.53125 C 22.222656 -28.414062 20.882812 -28.859375 19.15625 -28.859375 C 17.5625 -28.859375 16.210938 -28.5 15.109375 -27.78125 C 14.015625 -27.070312 13.328125 -26.132812 13.046875 -24.96875 C 12.828125 -24.050781 12.9375 -23.242188 13.375 -22.546875 C 13.820312 -21.847656 14.675781 -21.34375 15.9375 -21.03125 L 21.328125 -19.734375 C 24.140625 -19.066406 26.128906 -17.894531 27.296875 -16.21875 C 28.472656 -14.550781 28.726562 -12.351562 28.0625 -9.625 C 27.3125 -6.46875 25.660156 -3.988281 23.109375 -2.1875 C 20.554688 -0.394531 17.328125 0.5 13.421875 0.5 Z M 13.421875 0.5 "/></g></g></g><g fill="#0B1F3A" fill-opacity="1"><g transform="translate(48.149129, 55.754005)"><g><path d="M 9.25 0.453125 C 7.40625 0.453125 5.875 -0.00390625 4.65625 -0.921875 C 3.445312 -1.835938 2.640625 -3.097656 2.234375 -4.703125 C 1.828125 -6.304688 1.878906 -8.140625 2.390625 -10.203125 L 6.109375 -25.09375 L 12.875 -25.09375 L 9.40625 -11.171875 C 8.988281 -9.441406 9.066406 -8.101562 9.640625 -7.15625 C 10.210938 -6.207031 11.25 -5.734375 12.75 -5.734375 C 14.3125 -5.734375 15.691406 -6.238281 16.890625 -7.25 C 18.085938 -8.269531 18.898438 -9.644531 19.328125 -11.375 L 22.75 -25.09375 L 29.53125 -25.09375 L 23.25 0 L 16.6875 0 L 17.65625 -3.890625 L 17.484375 -3.890625 C 15.304688 -0.992188 12.5625 0.453125 9.25 0.453125 Z M 9.25 0.453125 "/></g></g></g><g fill="#0B1F3A" fill-opacity="1"><g transform="translate(77.673716, 55.754005)"><g><path d="M -2.515625 10.03125 L 6.265625 -25.09375 L 12.84375 -25.09375 L 11.921875 -21.5 L 12.09375 -21.5 C 14.289062 -24.226562 16.867188 -25.59375 19.828125 -25.59375 C 21.972656 -25.59375 23.710938 -25.019531 25.046875 -23.875 C 26.390625 -22.738281 27.257812 -21.164062 27.65625 -19.15625 C 28.0625 -17.144531 27.929688 -14.816406 27.265625 -12.171875 C 26.628906 -9.660156 25.660156 -7.445312 24.359375 -5.53125 C 23.066406 -3.625 21.539062 -2.140625 19.78125 -1.078125 C 18.019531 -0.0234375 16.140625 0.5 14.140625 0.5 C 12.492188 0.5 11.113281 0.160156 10 -0.515625 C 8.882812 -1.203125 8.144531 -2.171875 7.78125 -3.421875 L 7.609375 -3.421875 L 4.265625 10.03125 Z M 13.390625 -5.515625 C 15.085938 -5.515625 16.582031 -6.132812 17.875 -7.375 C 19.175781 -8.625 20.09375 -10.347656 20.625 -12.546875 C 21.144531 -14.722656 21.070312 -16.4375 20.40625 -17.6875 C 19.738281 -18.945312 18.566406 -19.578125 16.890625 -19.578125 C 15.304688 -19.578125 13.90625 -19.046875 12.6875 -17.984375 C 11.476562 -16.921875 10.648438 -15.484375 10.203125 -13.671875 L 9.625 -11.421875 C 9.175781 -9.609375 9.289062 -8.171875 9.96875 -7.109375 C 10.65625 -6.046875 11.796875 -5.515625 13.390625 -5.515625 Z M 13.390625 -5.515625 "/></g></g></g><g fill="#0B1F3A" fill-opacity="1"><g transform="translate(106.863744, 55.754005)"><g><path d="M 11.203125 0.5 C 8.691406 0.5 6.628906 -0.0664062 5.015625 -1.203125 C 3.398438 -2.347656 2.3125 -3.9375 1.75 -5.96875 C 1.195312 -8.007812 1.253906 -10.351562 1.921875 -13 C 2.566406 -15.507812 3.601562 -17.710938 5.03125 -19.609375 C 6.46875 -21.503906 8.179688 -22.972656 10.171875 -24.015625 C 12.171875 -25.066406 14.328125 -25.59375 16.640625 -25.59375 C 19.046875 -25.59375 21.015625 -25.046875 22.546875 -23.953125 C 24.078125 -22.867188 25.109375 -21.363281 25.640625 -19.4375 C 26.171875 -17.519531 26.097656 -15.28125 25.421875 -12.71875 L 24.921875 -10.75 L 7.953125 -10.75 C 7.753906 -8.90625 8.023438 -7.488281 8.765625 -6.5 C 9.503906 -5.507812 10.625 -5.015625 12.125 -5.015625 C 13.238281 -5.015625 14.25 -5.285156 15.15625 -5.828125 C 16.0625 -6.378906 16.78125 -7.128906 17.3125 -8.078125 L 24.421875 -8.078125 C 23.273438 -5.421875 21.507812 -3.328125 19.125 -1.796875 C 16.75 -0.265625 14.109375 0.5 11.203125 0.5 Z M 9.25 -15.34375 L 19.484375 -15.34375 C 19.648438 -16.882812 19.398438 -18.0625 18.734375 -18.875 C 18.066406 -19.695312 17.0625 -20.109375 15.71875 -20.109375 C 14.382812 -20.109375 13.148438 -19.695312 12.015625 -18.875 C 10.890625 -18.0625 9.96875 -16.882812 9.25 -15.34375 Z M 9.25 -15.34375 "/></g></g></g><g fill="#0B1F3A" fill-opacity="1"><g transform="translate(134.046443, 55.754005)"><g><path d="M 0.375 0 L 6.65625 -25.09375 L 13.171875 -25.09375 L 12.125 -20.953125 L 12.296875 -20.953125 C 13.191406 -22.316406 14.304688 -23.394531 15.640625 -24.1875 C 16.984375 -24.988281 18.421875 -25.390625 19.953125 -25.390625 L 22 -25.390625 L 20.5 -19.359375 L 18.15625 -19.359375 C 16.007812 -19.359375 14.289062 -18.742188 13 -17.515625 C 11.71875 -16.296875 10.828125 -14.679688 10.328125 -12.671875 L 7.15625 0 Z M 0.375 0 "/></g></g></g><g fill="#0B1F3A" fill-opacity="1"><g transform="translate(153.952536, 55.754005)"><g><path d="M 1.59375 0 L 6.53125 -19.65625 L 2.546875 -19.65625 L 3.890625 -25.09375 L 7.953125 -25.09375 L 9.03125 -29.5625 C 9.507812 -31.457031 10.347656 -32.859375 11.546875 -33.765625 C 12.742188 -34.671875 14.234375 -35.125 16.015625 -35.125 L 22.625 -35.125 L 21.28125 -29.6875 L 15.71875 -29.6875 L 14.546875 -25.09375 L 19.609375 -25.09375 L 18.28125 -19.65625 L 13.296875 -19.65625 L 8.359375 0 Z M 1.59375 0 "/></g></g></g><g fill="#0B1F3A" fill-opacity="1"><g transform="translate(171.18218, 55.754005)"><g><path d="M 7.28125 0.453125 C 5.519531 0.453125 4.050781 0.109375 2.875 -0.578125 C 1.707031 -1.273438 0.90625 -2.242188 0.46875 -3.484375 C 0.0390625 -4.734375 0.0234375 -6.148438 0.421875 -7.734375 C 1.003906 -10.109375 2.25 -11.921875 4.15625 -13.171875 C 6.070312 -14.429688 8.492188 -15.0625 11.421875 -15.0625 L 17.78125 -15.0625 L 18.03125 -16.0625 C 18.332031 -17.34375 18.203125 -18.335938 17.640625 -19.046875 C 17.085938 -19.753906 16.15625 -20.109375 14.84375 -20.109375 C 13.757812 -20.109375 12.785156 -19.847656 11.921875 -19.328125 C 11.054688 -18.816406 10.382812 -18.101562 9.90625 -17.1875 L 3.046875 -17.1875 C 4.273438 -19.914062 5.976562 -22 8.15625 -23.4375 C 10.332031 -24.875 12.882812 -25.59375 15.8125 -25.59375 C 19.207031 -25.59375 21.664062 -24.671875 23.1875 -22.828125 C 24.707031 -20.992188 25.078125 -18.515625 24.296875 -15.390625 L 20.5 0 L 14.21875 0 L 15.09375 -3.515625 L 14.9375 -3.515625 C 13.84375 -2.148438 12.679688 -1.144531 11.453125 -0.5 C 10.234375 0.132812 8.84375 0.453125 7.28125 0.453125 Z M 9.65625 -4.8125 C 10.6875 -4.8125 11.660156 -5.03125 12.578125 -5.46875 C 13.503906 -5.914062 14.316406 -6.546875 15.015625 -7.359375 C 15.710938 -8.171875 16.210938 -9.09375 16.515625 -10.125 L 16.609375 -10.453125 L 10.921875 -10.453125 C 9.890625 -10.453125 9.007812 -10.207031 8.28125 -9.71875 C 7.550781 -9.226562 7.078125 -8.554688 6.859375 -7.703125 C 6.640625 -6.804688 6.78125 -6.097656 7.28125 -5.578125 C 7.78125 -5.066406 8.570312 -4.8125 9.65625 -4.8125 Z M 9.65625 -4.8125 "/></g></g></g><g fill="#0B1F3A" fill-opacity="1"><g transform="translate(197.779398, 55.754005)"><g><path d="M 10.15625 0.5 C 6.8125 0.5 4.3125 -0.300781 2.65625 -1.90625 C 1 -3.507812 0.4375 -5.648438 0.96875 -8.328125 L 7.28125 -8.328125 C 7.195312 -7.210938 7.492188 -6.335938 8.171875 -5.703125 C 8.859375 -5.078125 9.867188 -4.765625 11.203125 -4.765625 C 12.347656 -4.765625 13.273438 -4.976562 13.984375 -5.40625 C 14.703125 -5.84375 15.15625 -6.46875 15.34375 -7.28125 C 15.65625 -8.53125 15.070312 -9.335938 13.59375 -9.703125 L 9.125 -10.75 C 4.6875 -11.78125 2.925781 -14.191406 3.84375 -17.984375 C 4.425781 -20.328125 5.726562 -22.179688 7.75 -23.546875 C 9.78125 -24.910156 12.257812 -25.59375 15.1875 -25.59375 C 18.300781 -25.59375 20.617188 -24.828125 22.140625 -23.296875 C 23.660156 -21.765625 24.1875 -19.726562 23.71875 -17.1875 L 17.390625 -17.1875 C 17.484375 -18.269531 17.234375 -19.097656 16.640625 -19.671875 C 16.054688 -20.242188 15.179688 -20.53125 14.015625 -20.53125 C 13.035156 -20.53125 12.203125 -20.320312 11.515625 -19.90625 C 10.835938 -19.488281 10.414062 -18.929688 10.25 -18.234375 C 10.101562 -17.671875 10.171875 -17.195312 10.453125 -16.8125 C 10.734375 -16.425781 11.179688 -16.144531 11.796875 -15.96875 L 16.4375 -14.9375 C 18.75 -14.40625 20.328125 -13.53125 21.171875 -12.3125 C 22.023438 -11.101562 22.203125 -9.46875 21.703125 -7.40625 C 21.066406 -4.894531 19.75 -2.945312 17.75 -1.5625 C 15.757812 -0.1875 13.226562 0.5 10.15625 0.5 Z M 10.15625 0.5 "/></g></g></g><g transform="matrix(1, 0, 0, 1, 0, -0.000000000000001893)"><g clip-path="url(#5685e6696d)"><g mask="url(#8ba37b8846)"><g transform="matrix(1, 0, 0, 1, 0, -0.000000000000001893)"><g clip-path="url(#e29ec1503a)"><g clip-path="url(#508c740552)"><path fill="url(#7d5de2b8c9)" d="M 122.140625 0 L 122.140625 75 L 300 75 L 300 0 Z M 122.140625 0 " fill-rule="nonzero"/></g></g></g></g></g></g></g></g></svg>
